<mxfile host="65bd71144e">
    <diagram id="QAnAcwfsm9kyV32lcaQQ" name="Page-1">
        <mxGraphModel dx="1502" dy="1464" grid="1" gridSize="10" guides="1" tooltips="1" connect="1" arrows="1" fold="1" page="1" pageScale="1" pageWidth="627" pageHeight="300" math="0" shadow="0">
            <root>
                <mxCell id="0"/>
                <mxCell id="1" parent="0"/>
                <mxCell id="15" value="" style="childLayout=tableLayout;recursiveResize=0;shadow=0;fillColor=none;" vertex="1" parent="1">
                    <mxGeometry x="224" y="80" width="180" height="140" as="geometry"/>
                </mxCell>
                <mxCell id="16" value="" style="shape=tableRow;horizontal=0;startSize=0;swimlaneHead=0;swimlaneBody=0;top=0;left=0;bottom=0;right=0;dropTarget=0;collapsible=0;recursiveResize=0;expand=0;fontStyle=0;fillColor=none;strokeColor=inherit;" vertex="1" parent="15">
                    <mxGeometry width="180" height="47" as="geometry"/>
                </mxCell>
                <mxCell id="17" value="204" style="connectable=0;recursiveResize=0;strokeColor=#2D7600;fillColor=#00CC00;align=center;whiteSpace=wrap;html=1;fontColor=#ffffff;" vertex="1" parent="16">
                    <mxGeometry width="60" height="47" as="geometry">
                        <mxRectangle width="60" height="47" as="alternateBounds"/>
                    </mxGeometry>
                </mxCell>
                <mxCell id="18" value="255" style="connectable=0;recursiveResize=0;strokeColor=#2D7600;fillColor=#00FF00;align=center;whiteSpace=wrap;html=1;fontColor=#ffffff;" vertex="1" parent="16">
                    <mxGeometry x="60" width="60" height="47" as="geometry">
                        <mxRectangle width="60" height="47" as="alternateBounds"/>
                    </mxGeometry>
                </mxCell>
                <mxCell id="19" value="0" style="connectable=0;recursiveResize=0;align=center;whiteSpace=wrap;html=1;fillColor=#000000;" vertex="1" parent="16">
                    <mxGeometry x="120" width="60" height="47" as="geometry">
                        <mxRectangle width="60" height="47" as="alternateBounds"/>
                    </mxGeometry>
                </mxCell>
                <mxCell id="20" style="shape=tableRow;horizontal=0;startSize=0;swimlaneHead=0;swimlaneBody=0;top=0;left=0;bottom=0;right=0;dropTarget=0;collapsible=0;recursiveResize=0;expand=0;fontStyle=0;fillColor=none;strokeColor=inherit;" vertex="1" parent="15">
                    <mxGeometry y="47" width="180" height="46" as="geometry"/>
                </mxCell>
                <mxCell id="21" value="12" style="connectable=0;recursiveResize=0;strokeColor=#2D7600;fillColor=#000C00;align=center;whiteSpace=wrap;html=1;fontColor=#ffffff;" vertex="1" parent="20">
                    <mxGeometry width="60" height="46" as="geometry">
                        <mxRectangle width="60" height="46" as="alternateBounds"/>
                    </mxGeometry>
                </mxCell>
                <mxCell id="22" value="100" style="connectable=0;recursiveResize=0;strokeColor=#2D7600;fillColor=#00AB00;align=center;whiteSpace=wrap;html=1;fontColor=#ffffff;" vertex="1" parent="20">
                    <mxGeometry x="60" width="60" height="46" as="geometry">
                        <mxRectangle width="60" height="46" as="alternateBounds"/>
                    </mxGeometry>
                </mxCell>
                <mxCell id="23" value="90" style="connectable=0;recursiveResize=0;strokeColor=#2D7600;fillColor=#005A00;align=center;whiteSpace=wrap;html=1;fontColor=#ffffff;" vertex="1" parent="20">
                    <mxGeometry x="120" width="60" height="46" as="geometry">
                        <mxRectangle width="60" height="46" as="alternateBounds"/>
                    </mxGeometry>
                </mxCell>
                <mxCell id="24" style="shape=tableRow;horizontal=0;startSize=0;swimlaneHead=0;swimlaneBody=0;top=0;left=0;bottom=0;right=0;dropTarget=0;collapsible=0;recursiveResize=0;expand=0;fontStyle=0;fillColor=none;strokeColor=inherit;" vertex="1" parent="15">
                    <mxGeometry y="93" width="180" height="47" as="geometry"/>
                </mxCell>
                <mxCell id="25" value="100" style="connectable=0;recursiveResize=0;strokeColor=#2D7600;fillColor=#00A900;align=center;whiteSpace=wrap;html=1;fontColor=#ffffff;" vertex="1" parent="24">
                    <mxGeometry width="60" height="47" as="geometry">
                        <mxRectangle width="60" height="47" as="alternateBounds"/>
                    </mxGeometry>
                </mxCell>
                <mxCell id="26" value="255" style="connectable=0;recursiveResize=0;strokeColor=#2D7600;fillColor=#00ff00;align=center;whiteSpace=wrap;html=1;fontColor=#ffffff;" vertex="1" parent="24">
                    <mxGeometry x="60" width="60" height="47" as="geometry">
                        <mxRectangle width="60" height="47" as="alternateBounds"/>
                    </mxGeometry>
                </mxCell>
                <mxCell id="27" value="0" style="connectable=0;recursiveResize=0;align=center;whiteSpace=wrap;html=1;fillColor=#000000;" vertex="1" parent="24">
                    <mxGeometry x="120" width="60" height="47" as="geometry">
                        <mxRectangle width="60" height="47" as="alternateBounds"/>
                    </mxGeometry>
                </mxCell>
                <mxCell id="28" value="" style="childLayout=tableLayout;recursiveResize=0;shadow=0;fillColor=none;" vertex="1" parent="1">
                    <mxGeometry x="424" y="80" width="180" height="140" as="geometry"/>
                </mxCell>
                <mxCell id="29" value="" style="shape=tableRow;horizontal=0;startSize=0;swimlaneHead=0;swimlaneBody=0;top=0;left=0;bottom=0;right=0;dropTarget=0;collapsible=0;recursiveResize=0;expand=0;fontStyle=0;fillColor=none;strokeColor=inherit;" vertex="1" parent="28">
                    <mxGeometry width="180" height="47" as="geometry"/>
                </mxCell>
                <mxCell id="30" value="43" style="connectable=0;recursiveResize=0;strokeColor=#001DBC;fillColor=#00002B;align=center;whiteSpace=wrap;html=1;fontColor=#ffffff;" vertex="1" parent="29">
                    <mxGeometry width="60" height="47" as="geometry">
                        <mxRectangle width="60" height="47" as="alternateBounds"/>
                    </mxGeometry>
                </mxCell>
                <mxCell id="31" value="255" style="connectable=0;recursiveResize=0;strokeColor=#001DBC;fillColor=#0000ff;align=center;whiteSpace=wrap;html=1;fontColor=#ffffff;" vertex="1" parent="29">
                    <mxGeometry x="60" width="60" height="47" as="geometry">
                        <mxRectangle width="60" height="47" as="alternateBounds"/>
                    </mxGeometry>
                </mxCell>
                <mxCell id="32" value="0" style="connectable=0;recursiveResize=0;strokeColor=#001DBC;fillColor=#000000;align=center;whiteSpace=wrap;html=1;fontColor=#ffffff;" vertex="1" parent="29">
                    <mxGeometry x="120" width="60" height="47" as="geometry">
                        <mxRectangle width="60" height="47" as="alternateBounds"/>
                    </mxGeometry>
                </mxCell>
                <mxCell id="33" style="shape=tableRow;horizontal=0;startSize=0;swimlaneHead=0;swimlaneBody=0;top=0;left=0;bottom=0;right=0;dropTarget=0;collapsible=0;recursiveResize=0;expand=0;fontStyle=0;fillColor=none;strokeColor=inherit;" vertex="1" parent="28">
                    <mxGeometry y="47" width="180" height="46" as="geometry"/>
                </mxCell>
                <mxCell id="34" value="171" style="connectable=0;recursiveResize=0;strokeColor=#001DBC;fillColor=#0000AB;align=center;whiteSpace=wrap;html=1;fontColor=#ffffff;" vertex="1" parent="33">
                    <mxGeometry width="60" height="46" as="geometry">
                        <mxRectangle width="60" height="46" as="alternateBounds"/>
                    </mxGeometry>
                </mxCell>
                <mxCell id="35" value="89" style="connectable=0;recursiveResize=0;strokeColor=#001DBC;fillColor=#000059;align=center;whiteSpace=wrap;html=1;fontColor=#ffffff;" vertex="1" parent="33">
                    <mxGeometry x="60" width="60" height="46" as="geometry">
                        <mxRectangle width="60" height="46" as="alternateBounds"/>
                    </mxGeometry>
                </mxCell>
                <mxCell id="36" value="228" style="connectable=0;recursiveResize=0;strokeColor=#001DBC;fillColor=#0000E4;align=center;whiteSpace=wrap;html=1;fontColor=#ffffff;" vertex="1" parent="33">
                    <mxGeometry x="120" width="60" height="46" as="geometry">
                        <mxRectangle width="60" height="46" as="alternateBounds"/>
                    </mxGeometry>
                </mxCell>
                <mxCell id="37" style="shape=tableRow;horizontal=0;startSize=0;swimlaneHead=0;swimlaneBody=0;top=0;left=0;bottom=0;right=0;dropTarget=0;collapsible=0;recursiveResize=0;expand=0;fontStyle=0;fillColor=none;strokeColor=inherit;" vertex="1" parent="28">
                    <mxGeometry y="93" width="180" height="47" as="geometry"/>
                </mxCell>
                <mxCell id="38" value="171" style="connectable=0;recursiveResize=0;strokeColor=#001DBC;fillColor=#0000AB;align=center;whiteSpace=wrap;html=1;fontColor=#ffffff;" vertex="1" parent="37">
                    <mxGeometry width="60" height="47" as="geometry">
                        <mxRectangle width="60" height="47" as="alternateBounds"/>
                    </mxGeometry>
                </mxCell>
                <mxCell id="39" value="0" style="connectable=0;recursiveResize=0;strokeColor=#001DBC;fillColor=#000000;align=center;whiteSpace=wrap;html=1;fontColor=#ffffff;" vertex="1" parent="37">
                    <mxGeometry x="60" width="60" height="47" as="geometry">
                        <mxRectangle width="60" height="47" as="alternateBounds"/>
                    </mxGeometry>
                </mxCell>
                <mxCell id="40" value="255" style="connectable=0;recursiveResize=0;strokeColor=#001DBC;fillColor=#0000ff;align=center;whiteSpace=wrap;html=1;fontColor=#ffffff;" vertex="1" parent="37">
                    <mxGeometry x="120" width="60" height="47" as="geometry">
                        <mxRectangle width="60" height="47" as="alternateBounds"/>
                    </mxGeometry>
                </mxCell>
                <mxCell id="2" value="" style="childLayout=tableLayout;recursiveResize=0;shadow=0;fillColor=none;movable=1;resizable=1;rotatable=1;deletable=1;editable=1;connectable=1;" vertex="1" parent="1">
                    <mxGeometry x="24" y="80" width="180" height="140" as="geometry"/>
                </mxCell>
                <mxCell id="3" value="" style="shape=tableRow;horizontal=0;startSize=0;swimlaneHead=0;swimlaneBody=0;top=0;left=0;bottom=0;right=0;dropTarget=0;collapsible=0;recursiveResize=0;expand=0;fontStyle=0;fillColor=none;strokeColor=inherit;" vertex="1" parent="2">
                    <mxGeometry width="180" height="47" as="geometry"/>
                </mxCell>
                <mxCell id="4" value="255" style="connectable=0;recursiveResize=0;strokeColor=#6F0000;fillColor=#FF0000;align=center;whiteSpace=wrap;html=1;fontColor=#ffffff;" vertex="1" parent="3">
                    <mxGeometry width="60" height="47" as="geometry">
                        <mxRectangle width="60" height="47" as="alternateBounds"/>
                    </mxGeometry>
                </mxCell>
                <mxCell id="5" value="255" style="connectable=0;recursiveResize=0;strokeColor=#6F0000;fillColor=#ff0000;align=center;whiteSpace=wrap;html=1;fontColor=#ffffff;" vertex="1" parent="3">
                    <mxGeometry x="60" width="60" height="47" as="geometry">
                        <mxRectangle width="60" height="47" as="alternateBounds"/>
                    </mxGeometry>
                </mxCell>
                <mxCell id="6" value="0" style="connectable=0;recursiveResize=0;align=center;whiteSpace=wrap;html=1;fillColor=#000000;" vertex="1" parent="3">
                    <mxGeometry x="120" width="60" height="47" as="geometry">
                        <mxRectangle width="60" height="47" as="alternateBounds"/>
                    </mxGeometry>
                </mxCell>
                <mxCell id="7" style="shape=tableRow;horizontal=0;startSize=0;swimlaneHead=0;swimlaneBody=0;top=0;left=0;bottom=0;right=0;dropTarget=0;collapsible=0;recursiveResize=0;expand=0;fontStyle=0;fillColor=none;strokeColor=inherit;" vertex="1" parent="2">
                    <mxGeometry y="47" width="180" height="46" as="geometry"/>
                </mxCell>
                <mxCell id="8" value="54" style="connectable=0;recursiveResize=0;strokeColor=#6F0000;fillColor=#36000C;align=center;whiteSpace=wrap;html=1;fontColor=#ffffff;" vertex="1" parent="7">
                    <mxGeometry width="60" height="46" as="geometry">
                        <mxRectangle width="60" height="46" as="alternateBounds"/>
                    </mxGeometry>
                </mxCell>
                <mxCell id="9" value="12" style="connectable=0;recursiveResize=0;strokeColor=#6F0000;fillColor=#0C0000;align=center;whiteSpace=wrap;html=1;fontColor=#ffffff;" vertex="1" parent="7">
                    <mxGeometry x="60" width="60" height="46" as="geometry">
                        <mxRectangle width="60" height="46" as="alternateBounds"/>
                    </mxGeometry>
                </mxCell>
                <mxCell id="10" value="162" style="connectable=0;recursiveResize=0;strokeColor=#6F0000;fillColor=#a20025;align=center;whiteSpace=wrap;html=1;fontColor=#ffffff;" vertex="1" parent="7">
                    <mxGeometry x="120" width="60" height="46" as="geometry">
                        <mxRectangle width="60" height="46" as="alternateBounds"/>
                    </mxGeometry>
                </mxCell>
                <mxCell id="11" style="shape=tableRow;horizontal=0;startSize=0;swimlaneHead=0;swimlaneBody=0;top=0;left=0;bottom=0;right=0;dropTarget=0;collapsible=0;recursiveResize=0;expand=0;fontStyle=0;fillColor=none;strokeColor=inherit;" vertex="1" parent="2">
                    <mxGeometry y="93" width="180" height="47" as="geometry"/>
                </mxCell>
                <mxCell id="12" value="200" style="connectable=0;recursiveResize=0;strokeColor=#6F0000;fillColor=#a20025;align=center;whiteSpace=wrap;html=1;fontColor=#ffffff;" vertex="1" parent="11">
                    <mxGeometry width="60" height="47" as="geometry">
                        <mxRectangle width="60" height="47" as="alternateBounds"/>
                    </mxGeometry>
                </mxCell>
                <mxCell id="13" value="0" style="connectable=0;recursiveResize=0;align=center;whiteSpace=wrap;html=1;fillColor=#000000;" vertex="1" parent="11">
                    <mxGeometry x="60" width="60" height="47" as="geometry">
                        <mxRectangle width="60" height="47" as="alternateBounds"/>
                    </mxGeometry>
                </mxCell>
                <mxCell id="14" value="162" style="connectable=0;recursiveResize=0;strokeColor=#6F0000;fillColor=#a20025;align=center;whiteSpace=wrap;html=1;fontColor=#ffffff;" vertex="1" parent="11">
                    <mxGeometry x="120" width="60" height="47" as="geometry">
                        <mxRectangle width="60" height="47" as="alternateBounds"/>
                    </mxGeometry>
                </mxCell>
            </root>
        </mxGraphModel>
    </diagram>
</mxfile>